# xmcd
#
# Track frame offsets: 
#        150
#        17114
#        30588
#        41403
#        55549
#        76894
#        84818
#        101876
#        117325
#        136432
#        149617
#
# Disc length: 2180 seconds
#
# Revision: 0
# Processed by: cddbd v1.5.2PL0 Copyright (c) Steve Scherf et al.
# Submitted via: ExactAudioCopy v0.99pb5
#
DISCID=8808820b
DTITLE=Alabama Shakes - Boys and Girls
DYEAR=2012
DGENRE=Blues
TTITLE0=Hold On
TTITLE1=I Found You
TTITLE2=Hang Loose
TTITLE3=Rise to the Sun
TTITLE4=You Ain't Alone
TTITLE5=Goin' to the Party
TTITLE6=Heartbreaker
TTITLE7=Boys and Girls
TTITLE8=Be Mine
TTITLE9=I Ain't the Same
TTITLE10=On Your Way
EXTD=
EXTT0=
EXTT1=
EXTT2=
EXTT3=
EXTT4=
EXTT5=
EXTT6=
EXTT7=
EXTT8=
EXTT9=
EXTT10=
PLAYORDER=
